<svg id="Layer_1" data-name="Layer 1" xmlns="http://www.w3.org/2000/svg" viewBox="0 0 283.46 283.46"><defs><style>.cls-1,.cls-2,.cls-5{fill:none;}.cls-1,.cls-2{stroke:#231f20;stroke-miterlimit:10;stroke-width:0.38px;}.cls-2,.cls-4{fill-rule:evenodd;}.cls-3,.cls-4{fill:#231f20;}</style></defs><title>SCOTOMALAB LOGO 10X10 2019</title><path class="cls-1" d="M142.87,100.79s4.91-.24,7.36-2.29"/><path class="cls-1" d="M142.87,103s6.5-.2,9.72-2.48"/><line class="cls-1" x1="154.53" y1="105.83" x2="131.2" y2="105.83"/><path class="cls-1" d="M142.92,100.79s-4.91-.24-7.37-2.29"/><path class="cls-1" d="M142.92,103s-6.5-.2-9.72-2.48"/><path class="cls-2" d="M154.53,105.82c0,5.19-5.2,9.4-11.61,9.4s-11.61-4.21-11.61-9.4,5.19-9.41,11.61-9.41S154.53,100.62,154.53,105.82Z"/><path class="cls-1" d="M142.92,96.41s4.45,4,4.45,9.42"/><path class="cls-1" d="M142.92,96.41s8.29,2.13,8.29,9.38"/><line class="cls-1" x1="142.92" y1="115.3" x2="142.92" y2="96.41"/><path class="cls-1" d="M142.87,98.73s2.86.12,4.14-1.73"/><path class="cls-1" d="M142.92,115.22s4.45-4,4.45-9.43"/><path class="cls-1" d="M142.92,115.22s8.29-2.12,8.29-9.39"/><path class="cls-1" d="M142.87,110.85s4.91.23,7.36,2.28"/><path class="cls-1" d="M142.87,108.63s6.5.2,9.72,2.49"/><path class="cls-1" d="M142.87,96.41s-4.45,4-4.45,9.42"/><path class="cls-1" d="M142.87,96.41s-8.29,2.13-8.29,9.38"/><path class="cls-1" d="M142.92,98.73s-2.87.12-4.14-1.73"/><path class="cls-1" d="M142.87,115.22s-4.45-4-4.45-9.43"/><path class="cls-1" d="M142.87,115.22s-8.29-2.12-8.29-9.39"/><path class="cls-1" d="M142.92,110.85s-4.91.23-7.37,2.28"/><path class="cls-1" d="M142.92,108.63s-6.5.2-9.72,2.49"/><path class="cls-3" d="M145.37,105.82a2.45,2.45,0,1,1-2.45-2.46A2.45,2.45,0,0,1,145.37,105.82Z"/><path class="cls-4" d="M131.16,127.46a24.33,24.33,0,0,0,8.36,2.73l.54.07.67.07c.29,0,.57,0,.86.06h.1c.39,0,.78,0,1.18,0a22.62,22.62,0,0,0,2.48-.14h.1c.31,0,.62-.07.92-.12l.56-.08.31-.06a24.57,24.57,0,0,0,10.43-43.79c13.81-4.14,29.41-5.54,35.73,7.59-.1-.21,19,35.72-75.49,65.73l-14.8-22.18c6.68-2.55,17.38-6.57,27.17-10.42,10.49-4.14,20-8.12,22.25-9.87.25,0,.42,0,.48.11.63,1-9.83,5.51-21.85,10.26Z"/><path class="cls-4" d="M154.57,84.25a24.19,24.19,0,0,0-8.36-2.73l-.54-.07-.67-.07-.85-.07h-.1c-.39,0-.79,0-1.18,0a22.48,22.48,0,0,0-2.48.14h-.1l-.93.11-.56.09-.3.06a24.57,24.57,0,0,0-10.43,43.79c-13.81,4.14-29.42,5.54-35.73-7.59.1.21-19-35.72,75.48-65.73l14.8,22.18c-6.67,2.55-17.37,6.57-27.16,10.42-10.49,4.13-20,8.12-22.25,9.87-.26,0-.42,0-.48-.11-.63-1,9.82-5.51,21.84-10.26Z"/><path class="cls-3" d="M14,208.83,17.21,204a10.86,10.86,0,0,0,8.19,3.31c2.5,0,4-1.11,4-2.79,0-1.45-1.86-2.15-5.58-3.43-4.65-1.62-8.66-3.71-8.66-9.29,0-4.65,4.19-8,10-8a15.07,15.07,0,0,1,10,3.55l-3.26,5.11a10.38,10.38,0,0,0-7.08-3c-1.28,0-3.08.69-3.08,2.44,0,1.39,1.74,2.38,4.47,3.42,6,2.39,9.82,3.49,9.82,9.12,0,4.77-3.37,8.6-10.57,8.6A17,17,0,0,1,14,208.83Z"/><path class="cls-3" d="M40.73,198.37c0-8.71,6.1-14.64,14.7-14.64A15.53,15.53,0,0,1,67.34,189l-4.42,3.83a9.17,9.17,0,0,0-7.14-3.25c-5.06,0-8.43,3.54-8.43,8.71S50.78,207,55.78,207a8.86,8.86,0,0,0,7.14-3.32l4.47,4C65,210.74,61.35,213,55.2,213,46.83,213,40.73,207,40.73,198.37Z"/><path class="cls-3" d="M71.63,198.37c0-8.36,5.93-14.64,14.87-14.64,8.72,0,14.88,5.93,14.88,14.64S95.22,213,86.5,213C77.56,213,71.63,206.68,71.63,198.37Zm23.12,0c0-5.23-3.6-8.77-8.25-8.77-4.93,0-8.24,3.83-8.24,8.77S81.63,207,86.5,207C91.09,207,94.75,203.48,94.75,198.37Z"/><path class="cls-3" d="M108.69,203.54V189.66h-3.48v-5.52h3.48v-9.41l6.51-.7v10.11h8.31v5.52H115.2V202.9c0,2.91.87,3.95,2.73,3.95a9.42,9.42,0,0,0,4.18-1.22l1.69,5.64a13.21,13.21,0,0,1-7.21,1.68C111.71,213,108.69,209.87,108.69,203.54Z"/><path class="cls-3" d="M126.35,198.37c0-8.36,5.93-14.64,14.87-14.64,8.72,0,14.87,5.93,14.87,14.64S149.94,213,141.22,213C132.28,213,126.35,206.68,126.35,198.37Zm23.12,0c0-5.23-3.6-8.77-8.25-8.77-4.93,0-8.25,3.83-8.25,8.77s3.37,8.66,8.25,8.66C145.81,207,149.47,203.48,149.47,198.37Z"/><path class="cls-3" d="M162.89,184.14h6.51V188h0a11.58,11.58,0,0,1,8.83-4.3c3.84,0,6.8,1.51,8.48,4.71h.12a12.44,12.44,0,0,1,10.17-4.71c6.21,0,9.93,3.89,9.93,12.38v16.38h-6.51V197.73c0-5.11-1.68-8.13-5.52-8.13-3.65,0-6.62,3.19-6.62,8.77v14.12h-6.5V197.73c0-5.11-1.8-8.13-5.64-8.13s-6.79,3.19-6.79,8.77v14.12h-6.51Z"/><path class="cls-3" d="M213.25,198.43c0-8.54,5.87-14.7,13.65-14.7a10.89,10.89,0,0,1,8.77,3.89l.12-.05v-3.43h6.51v28.35h-6.22v-3.72l-.12-.06a10.63,10.63,0,0,1-9,4.24C219.12,213,213.25,207.2,213.25,198.43Zm22.83.06c0-5.06-3.43-8.89-8.07-8.89s-8.14,3.43-8.14,8.89c0,5,3.31,8.54,8.14,8.54C232.42,207,236.08,203.6,236.08,198.49Z"/><path class="cls-3" d="M246.3,184.14h2.23v14.44H246.3Z"/><path class="cls-3" d="M251,193.83a4.69,4.69,0,0,1,4.68-5,3.78,3.78,0,0,1,3,1.31l0,0V189h2.23v9.58h-2.13v-1.26l0,0a3.67,3.67,0,0,1-3.09,1.44A4.61,4.61,0,0,1,251,193.83Zm7.83,0a2.82,2.82,0,0,0-2.77-3,2.78,2.78,0,0,0-2.79,3,2.72,2.72,0,0,0,2.79,2.89A2.76,2.76,0,0,0,258.81,193.85Z"/><path class="cls-3" d="M265.91,197.3h0v1.28h-2.14V184.14H266v6h0a4,4,0,0,1,3.08-1.27,4.69,4.69,0,0,1,4.7,5,4.61,4.61,0,0,1-4.72,4.91A3.76,3.76,0,0,1,265.91,197.3Zm5.6-3.45a2.82,2.82,0,1,0-2.79,2.89A2.73,2.73,0,0,0,271.51,193.85Z"/><rect class="cls-5" width="283.46" height="283.46"/></svg>